<mxfile host="app.diagrams.net" modified="2024-11-13T08:16:51.521Z" agent="Mozilla/5.0 (Windows NT 10.0; Win64; x64) AppleWebKit/537.36 (KHTML, like Gecko) Chrome/130.0.0.0 Safari/537.36" version="24.6.5" etag="pon3j_65suFmtgp9xSF9" type="github">
  <diagram name="Page-1" id="77FXZlbwy5sw5B4aOLtn">
    <mxGraphModel>
      <root>
        <mxCell id="0" />
        <mxCell id="1" parent="0" />
      </root>
    </mxGraphModel>
  </diagram>
</mxfile>
